<svg width="41" height="41" viewBox="0 0 41 41" fill="none" xmlns="http://www.w3.org/2000/svg">
<circle cx="20.5" cy="20.5" r="20.5" fill="#D51418"/>
<path d="M10.0967 20.5967H9.40327V19.9033C9.40327 19.4045 8.99891 19 8.5 19C8.00126 19 7.59673 19.4044 7.59673 19.9033V20.5967H6.90327C6.40453 20.5967 6 21.0011 6 21.5C6 21.9987 6.40436 22.4033 6.90327 22.4033H7.59673V23.0967C7.59673 23.5955 8.00109 24 8.5 24C8.99874 24 9.40327 23.5956 9.40327 23.0967V22.4033H10.0967C10.5955 22.4033 11 21.9989 11 21.5C11 21.0013 10.5956 20.5967 10.0967 20.5967Z" fill="white"/>
<path d="M22.0267 24.9943C22.3136 25.24 22.4573 25.6084 22.4573 26.0994C22.4573 27.1093 21.8625 27.614 20.6736 27.614H13.5593C12.37 27.614 11.7756 27.1093 11.7756 26.0994C11.7756 25.6084 11.9192 25.24 12.2061 24.9943C12.4929 24.7485 12.9443 24.6257 13.5595 24.6257H15.22V17.2369L13.5798 18.1987C13.3472 18.3354 13.1081 18.4034 12.8621 18.4034C12.4792 18.4034 12.1514 18.2363 11.8781 17.9019C11.6047 17.5677 11.4681 17.1957 11.4681 16.7861C11.4681 16.2268 11.7072 15.8039 12.1858 15.5172L15.466 13.6135C16.0673 13.2726 16.6347 13.102 17.1677 13.102C17.7007 13.102 18.1553 13.2658 18.49 13.5932C18.8247 13.921 18.9924 14.3643 18.9924 14.9236V24.6254H20.6738C21.2886 24.6254 21.7396 24.7482 22.0268 24.9939L22.0267 24.9943Z" fill="white"/>
<path d="M33.3334 21.4431C33.7777 22.0366 34 22.7701 34 23.6431C34 24.9396 33.4908 25.9527 32.4725 26.6828C31.4541 27.413 30.0635 27.7777 28.3005 27.7777C26.5374 27.7777 25.1463 27.4129 24.128 26.6828C23.1096 25.9529 22.6008 24.9397 22.6008 23.6431C22.6008 22.7426 22.8263 21.9956 23.2773 21.4021C23.7283 20.8085 24.3707 20.4025 25.2045 20.1842C24.4938 19.9113 23.9468 19.4918 23.5642 18.9254C23.1816 18.359 22.9904 17.6939 22.9904 16.9299C22.9904 15.7155 23.4687 14.757 24.4255 14.0541C25.382 13.3515 26.6737 13 28.3003 13C29.9269 13 31.2355 13.3515 32.1854 14.0541C33.1353 14.7569 33.6102 15.7155 33.6102 16.9299C33.6102 17.7214 33.4154 18.4036 33.0258 18.9767C32.6361 19.5498 32.0999 19.9523 31.4164 20.1842C32.25 20.43 32.889 20.8497 33.3333 21.4431H33.3334ZM30.5348 23.3361C30.5348 22.2717 29.7898 21.7396 28.3003 21.7396C26.8108 21.7396 26.0656 22.2717 26.0656 23.3361C26.0656 24.4005 26.8103 24.9327 28.3003 24.9327C29.7903 24.9327 30.5348 24.4005 30.5348 23.3361ZM26.9266 16.2032C26.6259 16.4418 26.4756 16.8273 26.4756 17.3596C26.4756 17.8919 26.6259 18.2807 26.9266 18.5264C27.2272 18.7722 27.6851 18.8949 28.3003 18.8949C28.9155 18.8949 29.3729 18.7723 29.6738 18.5264C29.9744 18.2807 30.1249 17.8917 30.1249 17.3596C30.1249 16.8275 29.9744 16.442 29.6738 16.2032C29.3731 15.9646 28.9153 15.8449 28.3003 15.8449C27.6853 15.8449 27.2272 15.9646 26.9266 16.2032Z" fill="white"/>
</svg>
