<svg width="41" height="41" viewBox="0 0 41 41" fill="none" xmlns="http://www.w3.org/2000/svg">
<circle cx="20.5" cy="20.5" r="20.5" fill="#D51418"/>
<g clip-path="url(#clip0_0_1)">
<path d="M18.7985 25.2815C13.418 26.5933 8.19958 22.5693 8.00606 17.1063C7.82375 11.9605 11.8685 7.87571 17.0115 8.0026C22.5741 8.13983 26.6305 13.4805 25.2833 18.8012C29.8097 18.4579 33.142 22.2176 32.9955 26.1838C32.8631 29.7692 29.8671 32.8117 26.28 32.9912C22.2873 33.1911 18.449 29.8569 18.7987 25.2813L18.7985 25.2815ZM32.1473 25.9188C32.1579 22.4573 29.3497 19.6415 25.8958 19.6505C22.4577 19.6595 19.6686 22.4457 19.653 25.8867C19.6374 29.339 22.4483 32.1504 25.9114 32.1465C29.3576 32.1423 32.1365 29.3671 32.1471 25.9188H32.1473ZM16.6643 10.5033C16.5712 10.5077 16.3764 10.5163 16.1816 10.5266C16.0842 10.5319 15.9854 10.5314 15.8898 10.5486C13.2849 11.0122 11.4826 12.4731 10.7582 15.0193C10.0296 17.5804 10.7186 19.8513 12.7877 21.5482C14.8522 23.2411 17.1709 23.4265 19.5915 22.2964C19.8193 22.1901 19.9847 22.0336 20.1289 21.8242C20.5852 21.1627 21.1449 20.5942 21.8092 20.142C22.0503 19.978 22.2095 19.7746 22.3344 19.5234C24.3934 15.3828 21.4004 10.5336 16.664 10.5028L16.6643 10.5033ZM23.389 19.2059C24.228 19.2349 24.4908 18.7715 24.531 18.0907C24.5453 17.8481 24.595 17.6077 24.6175 17.3654C25.1054 12.0887 20.1146 7.77983 14.9558 9.02324C10.7045 10.0478 8.07863 14.1834 8.99388 18.4131C9.90782 22.6361 14.0058 25.311 18.3074 24.4922C19.0498 24.3508 19.169 24.2044 19.1864 23.4122C15.1192 24.7335 11.9239 22.5987 10.6065 20.3076C9.05766 17.6143 9.41149 14.1876 11.5077 11.9369C13.6905 9.59327 17.0737 8.96672 19.9 10.3889C21.2944 11.0907 22.3553 12.1364 23.0552 13.5335C23.9744 15.3681 24.0481 17.2638 23.389 19.2054V19.2059Z" fill="white"/>
<path d="M30.0735 23.8185C30.0834 24.0056 29.9604 24.1131 29.8353 24.2202C27.9604 25.8276 26.0837 27.433 24.2127 29.045C23.9211 29.2962 23.6781 29.2849 23.4125 29.0105C22.9377 28.5201 22.4517 28.0409 21.9666 27.5606C21.7579 27.3541 21.6453 27.1276 21.8793 26.8848C22.1181 26.6369 22.3457 26.7539 22.5511 26.9617C22.8823 27.2971 23.233 27.6149 23.5433 27.9683C23.7628 28.2181 23.9053 28.221 24.1617 27.9973C25.8026 26.5668 27.4605 25.1553 29.1134 23.7382C29.2242 23.6432 29.3293 23.5341 29.4555 23.4655C29.7597 23.3006 30.0785 23.4895 30.0735 23.8182V23.8185Z" fill="white"/>
<path d="M17.162 13.8241C17.162 14.6131 17.1708 15.3439 17.157 16.0745C17.1523 16.3195 17.2687 16.3615 17.4739 16.3936C18.0623 16.4855 18.5993 16.7081 19.0422 17.1184C19.8682 17.8835 19.8535 18.9701 19.0075 19.7179C18.5824 20.0937 18.0806 20.32 17.5229 20.3974C17.2429 20.4363 17.1154 20.5364 17.1574 20.8313C17.1801 20.9905 17.1702 21.157 17.1554 21.3186C17.1337 21.5594 16.9903 21.7202 16.7521 21.7319C16.5091 21.7437 16.2879 21.5647 16.3317 21.3534C16.5027 20.5274 15.9884 20.3941 15.3711 20.2307C14.7424 20.0642 14.2463 19.6569 13.9571 19.0456C13.8579 18.836 13.8243 18.6128 13.8326 18.3812C13.8412 18.1439 13.9881 18.0153 14.1957 17.993C14.4059 17.9706 14.6023 18.0755 14.6278 18.3005C14.721 19.1206 15.3328 19.3565 15.9884 19.567C16.2661 19.6563 16.3207 19.5611 16.3145 19.3002C16.2995 18.6823 16.2998 18.0634 16.3145 17.4455C16.3204 17.2009 16.241 17.1096 15.9945 17.0736C15.388 16.9849 14.8391 16.7477 14.3916 16.3155C13.6281 15.5784 13.6301 14.5494 14.3976 13.8168C14.8341 13.4001 15.3636 13.1535 15.9554 13.0737C16.2512 13.0337 16.3479 12.9152 16.3138 12.6326C16.2945 12.4725 16.3011 12.3064 16.3182 12.1452C16.3435 11.9049 16.4911 11.7443 16.7292 11.7399C16.9672 11.7357 17.1851 11.906 17.1436 12.127C16.9982 12.9004 17.4191 13.0786 18.0621 13.2263C18.7069 13.3746 19.2228 13.7975 19.5166 14.4302C19.6147 14.6415 19.649 14.8643 19.6388 15.0948C19.6285 15.329 19.4796 15.4609 19.2714 15.4807C19.0605 15.5007 18.8725 15.3883 18.8415 15.1658C18.7069 14.1968 17.9504 14.0438 17.162 13.8245V13.8241ZM17.1618 17.1906V18.7621C17.1618 19.7262 17.2964 19.8008 18.1556 19.3055C18.2673 19.2411 18.3742 19.1632 18.4694 19.0764C18.9373 18.6486 18.9415 18.1608 18.4749 17.7333C18.1158 17.4041 17.6757 17.2574 17.1618 17.1906ZM16.3101 15.0763C16.3101 14.8654 16.3101 14.6543 16.3101 14.4434C16.3101 13.995 16.1048 13.845 15.6941 13.9932C15.0551 14.2239 14.6109 14.6631 14.6568 15.0853C14.725 15.7118 15.2143 15.9617 15.7278 16.153C16.3053 16.3681 16.3094 16.3571 16.3101 15.758C16.3101 15.5309 16.3101 15.3037 16.3101 15.0765V15.0763Z" fill="white"/>
</g>
<defs>
<clipPath id="clip0_0_1">
<rect width="25" height="25" fill="white" transform="translate(8 8)"/>
</clipPath>
</defs>
</svg>
