<svg width="41" height="41" viewBox="0 0 41 41" fill="none" xmlns="http://www.w3.org/2000/svg">
<circle cx="20.5" cy="20.5" r="20.5" fill="#D51418"/>
<path d="M6.00363 23.6191C6.00363 21.5228 6.00047 19.4265 6.00457 17.3305C6.00836 15.355 7.08858 14.2852 9.07176 14.284C10.6626 14.283 12.2531 14.2789 13.844 14.2855C14.8431 14.2896 15.6676 14.6749 16.1955 15.5364C16.4232 15.9082 16.557 15.7905 16.7881 15.5813C18.8956 13.6781 20.4398 11.3788 21.573 8.79022C21.9893 7.8391 22.6456 7.1824 23.7085 7.03219C25.0732 6.83969 26.2111 7.52006 26.6807 8.81799C27.3052 10.5435 27.4437 12.3309 27.3131 14.1486C27.28 14.6077 27.0627 15.2199 27.2753 15.4863C27.5121 15.7832 28.147 15.5478 28.6081 15.5503C29.3449 15.5544 30.0819 15.5254 30.819 15.5134C33.1885 15.4752 34.9361 17.0483 34.9935 19.4094C35.0683 22.49 34.5504 25.4633 33.1403 28.2494C32.068 30.3685 30.3822 31.3912 28.0095 31.3909C25.2337 31.3903 22.5305 30.9772 19.8903 30.1331C19.0205 29.855 18.1358 29.6667 17.2262 29.5663C16.7885 29.518 16.6027 29.5786 16.6402 30.0756C16.6945 30.7951 16.4822 31.4566 16.0098 32.0173C15.4339 32.7008 14.682 32.9972 13.8026 32.9978C12.173 32.9994 10.5437 33.0032 8.91407 32.9968C7.1362 32.9899 6.0175 31.8759 6.0071 30.0829C5.9948 27.9285 6.00426 25.7738 6.00394 23.6194L6.00363 23.6191ZM16.6598 22.7623C16.6598 24.3345 16.6718 25.9067 16.6506 27.4782C16.6459 27.8291 16.738 27.9421 17.0897 27.9578C18.0794 28.0023 19.0508 28.1728 19.9966 28.4814C22.6128 29.335 25.2877 29.7856 28.0499 29.7736C29.7445 29.7661 30.9171 29.0639 31.6835 27.5593C32.9372 25.0982 33.38 22.4682 33.3992 19.7436C33.4115 18.0137 32.39 17.061 30.6559 17.1206C29.2411 17.1692 27.8253 17.1957 26.4095 17.2222C25.6857 17.2358 25.3469 16.8584 25.4403 16.1887C25.534 15.5169 25.6434 14.8457 25.6955 14.17C25.82 12.5527 25.7384 10.9506 25.176 9.4081C24.8732 8.57753 23.9438 8.33265 23.3694 8.91266C23.1584 9.12567 23.0733 9.40874 22.9525 9.67097C21.5376 12.7433 19.6541 15.4579 16.9298 17.5214C16.6882 17.7044 16.6551 17.8997 16.6563 18.1626C16.6636 19.6956 16.6598 21.229 16.6598 22.7623ZM7.61087 23.6428C7.61087 25.7388 7.60992 27.8348 7.61118 29.9311C7.61181 31.0119 7.97136 31.3789 9.02855 31.3799C10.561 31.3815 12.0932 31.3815 13.6257 31.3799C14.6602 31.3789 15.0305 31.0119 15.0305 29.9835C15.0314 25.7331 15.0305 21.4827 15.0298 17.2323C15.0298 16.291 14.6381 15.9044 13.6784 15.9028C12.1267 15.9006 10.5749 15.9012 9.02319 15.9028C7.98461 15.9038 7.61307 16.2679 7.61181 17.2964C7.60897 19.4119 7.61087 21.5272 7.61087 23.6428Z" fill="white"/>
</svg>
